<svg width="16" height="16" viewBox="0 0 16 16" fill="none" xmlns="http://www.w3.org/2000/svg">
<path d="M9.68661 6.31328L6.31328 9.68661C5.87995 9.25328 5.61328 8.65995 5.61328 7.99995C5.61328 6.67995 6.67995 5.61328 7.99995 5.61328C8.65995 5.61328 9.25328 5.87995 9.68661 6.31328Z" stroke="#51526C" stroke-width="1.2" stroke-linecap="round" stroke-linejoin="round"/>
<path d="M11.8799 3.84665C10.7132 2.96665 9.3799 2.48665 7.9999 2.48665C5.64656 2.48665 3.45323 3.87332 1.92656 6.27332C1.32656 7.21332 1.32656 8.79332 1.92656 9.73332C2.45323 10.56 3.06656 11.2733 3.73323 11.8467" stroke="#51526C" stroke-width="1.2" stroke-linecap="round" stroke-linejoin="round"/>
<path d="M5.61328 13.0201C6.37328 13.3401 7.17995 13.5134 7.99995 13.5134C10.3533 13.5134 12.5466 12.1268 14.0733 9.72678C14.6733 8.78678 14.6733 7.20678 14.0733 6.26678C13.8533 5.92012 13.6133 5.59345 13.3666 5.28678" stroke="#51526C" stroke-width="1.2" stroke-linecap="round" stroke-linejoin="round"/>
<path d="M10.34 8.4668C10.1666 9.4068 9.39996 10.1735 8.45996 10.3468" stroke="#51526C" stroke-width="1.2" stroke-linecap="round" stroke-linejoin="round"/>
<path d="M6.3135 9.68652L1.3335 14.6665" stroke="#51526C" stroke-width="1.2" stroke-linecap="round" stroke-linejoin="round"/>
<path d="M14.6665 1.33333L9.68652 6.31333" stroke="#51526C" stroke-width="1.2" stroke-linecap="round" stroke-linejoin="round"/>
</svg>
