<svg viewBox="0 0 30 30" fill="currentColor" stroke="currentColor" xmlns="http://www.w3.org/2000/svg">
    <path d="M18.75 11.25V1.875H20.625V11.25H18.75Z" />
    <path d="M22.5 11.25V1.875H24.375V11.25H22.5Z" />
    <path d="M26.25 11.25V1.875H28.125V11.25H26.25Z" />
    <path stroke-width="1.3"
        d="M15 18.75C14.5045 18.7612 14.0118 18.6719 13.5517 18.4874C13.0917 18.303 12.6738 18.0272 12.3233 17.6767C11.9728 17.3262 11.697 16.9083 11.5126 16.4483C11.3281 15.9882 11.2388 15.4955 11.25 15C11.2388 14.5045 11.3281 14.0118 11.5126 13.5517C11.697 13.0917 11.9728 12.6738 12.3233 12.3233C12.6738 11.9728 13.0917 11.697 13.5517 11.5126C14.0118 11.3281 14.5045 11.2388 15 11.25V9.375C13.8875 9.375 12.7999 9.7049 11.8749 10.323C10.9499 10.9411 10.2289 11.8196 9.80318 12.8474C9.37744 13.8752 9.26604 15.0062 9.48309 16.0974C9.70013 17.1885 10.2359 18.1908 11.0225 18.9775C11.8092 19.7641 12.8115 20.2999 13.9026 20.5169C14.9938 20.734 16.1248 20.6226 17.1526 20.1968C18.1804 19.7711 19.0589 19.0501 19.677 18.1251C20.2951 17.2001 20.625 16.1125 20.625 15H18.75C18.7612 15.4955 18.6719 15.9882 18.4874 16.4483C18.303 16.9083 18.0272 17.3262 17.6767 17.6767C17.3262 18.0272 16.9083 18.303 16.4483 18.4874C15.9882 18.6719 15.4955 18.7612 15 18.75Z" />
    <path stroke-width="1.3"
        d="M27.087 17.3003L24.4668 15L23.2313 16.4104L25.8489 18.7088L23.6364 22.5412L20.4233 21.4545C19.667 22.0879 18.8059 22.5842 17.8787 22.9211L17.2125 26.25H12.7875L12.1219 22.9211C11.2012 22.5792 10.3465 22.0809 9.5955 21.448L6.36413 22.5412L4.15163 18.7088L6.70575 16.4634C6.53098 15.494 6.52876 14.5013 6.69919 13.531L4.15078 11.2912L6.36431 7.45884L9.57684 8.5455C10.3331 7.91212 11.1942 7.41578 12.1213 7.07888L12.7875 3.75H15V1.875H12.7875C12.354 1.87502 11.934 2.02522 11.5988 2.30005C11.2636 2.57488 11.0339 2.95736 10.949 3.38241L10.4768 5.74359C10.0461 5.94989 9.63041 6.18593 9.23259 6.45L6.96441 5.68266C6.55385 5.54338 6.10769 5.55084 5.70202 5.70379C5.29636 5.85673 4.95632 6.14568 4.73991 6.52134L2.52684 10.3537C2.31019 10.7291 2.23026 11.168 2.30066 11.5957C2.37106 12.0234 2.58744 12.4136 2.913 12.6997L4.72322 14.2905C4.70719 14.5262 4.6875 14.7606 4.6875 15C4.6875 15.2417 4.69688 15.4807 4.71356 15.7178L2.913 17.3003C2.58744 17.5864 2.37106 17.9766 2.30066 18.4043C2.23026 18.832 2.31019 19.2709 2.52684 19.6463L4.73991 23.4787C4.95632 23.8543 5.29636 24.1433 5.70202 24.2962C6.10769 24.4492 6.55385 24.4566 6.96441 24.3173L9.24637 23.5455C9.6395 23.8105 10.0505 24.0481 10.4764 24.2564L10.9486 26.6176C11.0336 27.0427 11.2633 27.4252 11.5985 27.7001C11.9338 27.9749 12.354 28.1251 12.7875 28.125H17.2125C17.646 28.125 18.066 27.9748 18.4012 27.7C18.7364 27.4251 18.9661 27.0426 19.051 26.6176L19.5233 24.2564C19.9537 24.0501 20.3693 23.8141 20.767 23.5501L23.0352 24.3173C23.4458 24.4566 23.8919 24.4492 24.2976 24.2962C24.7033 24.1433 25.0433 23.8543 25.2597 23.4787L27.4728 19.6463C27.6895 19.2709 27.7695 18.8321 27.6991 18.4044C27.6288 17.9766 27.4125 17.5865 27.087 17.3003Z" />
</svg>